<svg xmlns="http://www.w3.org/2000/svg" style="display:none;">
  <symbol id="icon-clock" viewBox="0 0 20 20">
   <path fill-rule="evenodd" clip-rule="evenodd" d="M10 18C12.1217 18 14.1566 17.1571 15.6569 15.6569C17.1571 14.1566 18 12.1217 18 10C18 7.87827 17.1571 5.84344 15.6569 4.34315C14.1566 2.84285 12.1217 2 10 2C7.87827 2 5.84344 2.84285 4.34315 4.34315C2.84285 5.84344 2 7.87827 2 10C2 12.1217 2.84285 14.1566 4.34315 15.6569C5.84344 17.1571 7.87827 18 10 18ZM11 6C11 5.73478 10.8946 5.48043 10.7071 5.29289C10.5196 5.10536 10.2652 5 10 5C9.73478 5 9.48043 5.10536 9.29289 5.29289C9.10536 5.48043 9 5.73478 9 6V10C9.00006 10.2652 9.10545 10.5195 9.293 10.707L12.121 13.536C12.2139 13.6289 12.3242 13.7026 12.4456 13.7529C12.567 13.8032 12.6971 13.8291 12.8285 13.8291C12.9599 13.8291 13.09 13.8032 13.2114 13.7529C13.3328 13.7026 13.4431 13.6289 13.536 13.536C13.6289 13.4431 13.7026 13.3328 13.7529 13.2114C13.8032 13.09 13.8291 12.9599 13.8291 12.8285C13.8291 12.6971 13.8032 12.567 13.7529 12.4456C13.7026 12.3242 13.6289 12.2139 13.536 12.121L11 9.586V6Z" fill="#023047" />
  </symbol>

  <symbol id="icon-close" viewBox="0 0 40 40">
    <path d="M10 10L30 30M10 30L30 10L10 30Z" stroke="white" stroke-width="3.55754" stroke-linecap="round" stroke-linejoin="round" />
  </symbol>

  <symbol id="icon-star" viewBox="0 0 44 44">
   <path d="M42.625 17.325H26.8812L22 2.0625L17.1187 17.325H1.375L14.0938 26.7438L9.28125 41.9375L22 32.5187L34.7188 41.9375L29.8375 26.675L42.625 17.325Z" fill="#FFCE31"/>
  </symbol>

  <symbol id="icon-facebook" viewBox="0 0 24 24">
    <path fill-rule="evenodd" clip-rule="evenodd" d="M0 12.067C0 18.033 4.333 22.994 10 24V15.333H7V12H10V9.333C10 6.333 11.933 4.667 14.667 4.667C15.533 4.667 16.467 4.8 17.333 4.933V8H15.8C14.333 8 14 8.733 14 9.667V12H17.2L16.667 15.333H14V24C19.667 22.994 24 18.034 24 12.067C24 5.43 18.6 0 12 0C5.4 0 0 5.43 0 12.067Z" fill="white"/>
  </symbol>

  <symbol id="icon-hamburger" viewBox="0 0 40 40">
    <path d="M33.3335 26.6667H6.66683M33.3335 13.3334H6.66683H33.3335Z" stroke="#023047" stroke-width="4.33333" stroke-linecap="round" stroke-linejoin="round"/>
  </symbol>

  <symbol id="icon-instagram" viewBox="0 0 24 24">
    <path fill-rule="evenodd" clip-rule="evenodd" d="M7.05273 0.072C8.33236 0.0130909 8.74036 0 12 0C15.2596 0 15.6676 0.0141818 16.9462 0.072C18.2247 0.129818 19.0975 0.333818 19.8611 0.629455C20.6607 0.931636 21.3862 1.404 21.9862 2.01491C22.5971 2.61382 23.0684 3.33818 23.3695 4.13891C23.6662 4.90255 23.8691 5.77527 23.928 7.05164C23.9869 8.33345 24 8.74145 24 12C24 15.2596 23.9858 15.6676 23.928 16.9473C23.8702 18.2236 23.6662 19.0964 23.3695 19.86C23.0684 20.6608 22.5963 21.3864 21.9862 21.9862C21.3862 22.5971 20.6607 23.0684 19.8611 23.3695C19.0975 23.6662 18.2247 23.8691 16.9484 23.928C15.6676 23.9869 15.2596 24 12 24C8.74036 24 8.33236 23.9858 7.05273 23.928C5.77636 23.8702 4.90364 23.6662 4.14 23.3695C3.33919 23.0683 2.61362 22.5963 2.01382 21.9862C1.40332 21.3869 0.930889 20.6617 0.629455 19.8611C0.333818 19.0975 0.130909 18.2247 0.072 16.9484C0.0130909 15.6665 0 15.2585 0 12C0 8.74036 0.0141818 8.33236 0.072 7.05382C0.129818 5.77527 0.333818 4.90255 0.629455 4.13891C0.931334 3.33827 1.40413 2.61307 2.01491 2.01382C2.61386 1.40346 3.3387 0.931029 4.13891 0.629455C4.90255 0.333818 5.77527 0.130909 7.05164 0.072H7.05273ZM16.8491 2.232C15.5836 2.17418 15.204 2.16218 12 2.16218C8.796 2.16218 8.41636 2.17418 7.15091 2.232C5.98036 2.28545 5.34545 2.48073 4.92218 2.64545C4.36255 2.86364 3.96218 3.12218 3.54218 3.54218C3.14405 3.92951 2.83765 4.40104 2.64545 4.92218C2.48073 5.34545 2.28545 5.98036 2.232 7.15091C2.17418 8.41636 2.16218 8.796 2.16218 12C2.16218 15.204 2.17418 15.5836 2.232 16.8491C2.28545 18.0196 2.48073 18.6545 2.64545 19.0778C2.83745 19.5982 3.144 20.0705 3.54218 20.4578C3.92945 20.856 4.40182 21.1625 4.92218 21.3545C5.34545 21.5193 5.98036 21.7145 7.15091 21.768C8.41636 21.8258 8.79491 21.8378 12 21.8378C15.2051 21.8378 15.5836 21.8258 16.8491 21.768C18.0196 21.7145 18.6545 21.5193 19.0778 21.3545C19.6375 21.1364 20.0378 20.8778 20.4578 20.4578C20.856 20.0705 21.1625 19.5982 21.3545 19.0778C21.5193 18.6545 21.7145 18.0196 21.768 16.8491C21.8258 15.5836 21.8378 15.204 21.8378 12C21.8378 8.796 21.8258 8.41636 21.768 7.15091C21.7145 5.98036 21.5193 5.34545 21.3545 4.92218C21.1364 4.36255 20.8778 3.96218 20.4578 3.54218C20.0705 3.14408 19.5989 2.83768 19.0778 2.64545C18.6545 2.48073 18.0196 2.28545 16.8491 2.232ZM10.4673 15.6993C11.3233 16.0556 12.2764 16.1037 13.1639 15.8353C14.0514 15.567 14.8182 14.9988 15.3334 14.2279C15.8485 13.457 16.0801 12.5311 15.9884 11.6085C15.8968 10.6858 15.4876 9.82361 14.8309 9.16909C14.4123 8.7507 13.9061 8.43034 13.3487 8.23107C12.7914 8.0318 12.1968 7.95858 11.6078 8.01667C11.0188 8.07477 10.45 8.26274 9.94233 8.56705C9.43468 8.87136 9.00081 9.28445 8.67197 9.77657C8.34312 10.2687 8.12748 10.8276 8.04056 11.413C7.95365 11.9985 7.99762 12.596 8.16932 13.1624C8.34101 13.7288 8.63616 14.2501 9.03351 14.6888C9.43087 15.1275 9.92054 15.4726 10.4673 15.6993ZM7.63855 7.63855C8.2113 7.06579 8.89126 6.61146 9.6396 6.30149C10.3879 5.99151 11.19 5.83197 12 5.83197C12.81 5.83197 13.6121 5.99151 14.3604 6.30149C15.1087 6.61146 15.7887 7.06579 16.3615 7.63855C16.9342 8.2113 17.3885 8.89126 17.6985 9.6396C18.0085 10.3879 18.168 11.19 18.168 12C18.168 12.81 18.0085 13.6121 17.6985 14.3604C17.3885 15.1087 16.9342 15.7887 16.3615 16.3615C15.2047 17.5182 13.6359 18.168 12 18.168C10.3641 18.168 8.79528 17.5182 7.63855 16.3615C6.48182 15.2047 5.83197 13.6359 5.83197 12C5.83197 10.3641 6.48182 8.79528 7.63855 7.63855ZM19.536 6.75055C19.6779 6.61666 19.7916 6.45565 19.8701 6.27706C19.9487 6.09847 19.9907 5.90593 19.9935 5.71083C19.9964 5.51574 19.9601 5.32205 19.8867 5.14125C19.8134 4.96044 19.7045 4.79619 19.5665 4.65822C19.4285 4.52026 19.2643 4.41137 19.0835 4.33802C18.9027 4.26467 18.709 4.22834 18.5139 4.23118C18.3188 4.23403 18.1263 4.27599 17.9477 4.35458C17.7691 4.43317 17.6081 4.5468 17.4742 4.68873C17.2138 4.96476 17.0712 5.33141 17.0768 5.71083C17.0823 6.09026 17.2355 6.4526 17.5038 6.72092C17.7721 6.98924 18.1345 7.14243 18.5139 7.14796C18.8933 7.15349 19.26 7.01093 19.536 6.75055Z" fill="white"/>
  </symbol>

  <symbol id="icon-pencil" viewBox="0 0 18 18">
    <path d="M15.6726 2.32743C15.3351 1.98998 14.8773 1.80042 14.4 1.80042C13.9228 1.80042 13.465 1.98998 13.1274 2.32743L6.30005 9.15483V11.7H8.84525L15.6726 4.87263C16.0101 4.53508 16.1997 4.07733 16.1997 3.60003C16.1997 3.12274 16.0101 2.66498 15.6726 2.32743Z" fill="white"/>
    <path fill-rule="evenodd" clip-rule="evenodd" d="M1.80005 5.39998C1.80005 4.92259 1.98969 4.46475 2.32726 4.12718C2.66482 3.78962 3.12266 3.59998 3.60005 3.59998H7.20005C7.43874 3.59998 7.66766 3.6948 7.83644 3.86358C8.00523 4.03236 8.10005 4.26128 8.10005 4.49998C8.10005 4.73867 8.00523 4.96759 7.83644 5.13637C7.66766 5.30515 7.43874 5.39998 7.20005 5.39998H3.60005V14.4H12.6V10.8C12.6 10.5613 12.6949 10.3324 12.8637 10.1636C13.0324 9.9948 13.2614 9.89997 13.5 9.89997C13.7387 9.89997 13.9677 9.9948 14.1364 10.1636C14.3052 10.3324 14.4 10.5613 14.4 10.8V14.4C14.4 14.8774 14.2104 15.3352 13.8728 15.6728C13.5353 16.0103 13.0774 16.2 12.6 16.2H3.60005C3.12266 16.2 2.66482 16.0103 2.32726 15.6728C1.98969 15.3352 1.80005 14.8774 1.80005 14.4V5.39998Z" fill="white"/>
  </symbol>
</svg>
